<svg width="96" height="41" viewBox="0 0 96 41" fill="none" xmlns="http://www.w3.org/2000/svg">
<path d="M26.0484 0C24.0426 0 22.4102 1.63247 22.4102 3.63828C22.4102 5.64408 24.0426 7.27658 26.0484 7.27658C28.0543 7.27658 29.6867 5.64408 29.6867 3.63828C29.6867 1.63247 28.0534 0 26.0484 0Z" fill="#FF0F0F"/>
<path d="M29.1775 9.82227H22.9199V27.9068H29.1775V9.82227Z" fill="#FF0F0F"/>
<path d="M13.372 9.63245C12.2707 9.20396 11.0735 8.96809 9.82285 8.96809C4.40615 8.96809 0 13.3751 0 18.7918C0 24.2076 4.40615 28.6146 9.82285 28.6146C15.2395 28.6146 19.6457 24.2076 19.6457 18.7918V0.708984H13.372V9.63245ZM9.82285 22.7839C7.62104 22.7839 5.82991 20.9927 5.82991 18.7909C5.82991 16.5883 7.62104 14.7971 9.82285 14.7971C12.0247 14.7971 13.8158 16.5883 13.8158 18.7909C13.8158 20.9927 12.0238 22.7839 9.82285 22.7839Z" fill="#FF0F0F"/>
<path d="M63.1588 8.96875C57.7421 8.96875 53.3359 13.3758 53.3359 18.7925C53.3359 24.2083 57.7421 28.6153 63.1588 28.6153C64.3382 28.6153 65.4692 28.4066 66.5179 28.0239C66.9184 28.6459 67.1517 29.3849 67.1517 30.1782C67.1517 32.38 65.3606 34.172 63.1588 34.172C61.808 34.172 60.6125 33.4975 59.8896 32.4674L55.1152 35.8104C56.8936 38.3423 59.8361 40.0011 63.1588 40.0011C68.5755 40.0011 72.9816 35.594 72.9816 30.1774C72.9816 28.057 72.3063 26.0928 71.1591 24.4849C72.3063 22.8779 72.9816 20.9119 72.9816 18.7916C72.9816 13.3766 68.5755 8.96875 63.1588 8.96875ZM63.1588 22.7854C60.957 22.7854 59.1658 20.9943 59.1658 18.7925C59.1658 16.5898 60.957 14.7987 63.1588 14.7987C65.3606 14.7987 67.1517 16.5898 67.1517 18.7925C67.1517 20.9943 65.3606 22.7854 63.1588 22.7854Z" fill="#FF0F0F"/>
<path d="M85.3502 8.96875C79.9335 8.96875 75.5273 13.3758 75.5273 18.7925C75.5273 24.2083 79.9335 28.6153 85.3502 28.6153C90.7669 28.6153 95.173 24.2083 95.173 18.7925C95.173 13.3766 90.7669 8.96875 85.3502 8.96875ZM85.3502 22.7854C83.1484 22.7854 81.3573 20.9943 81.3573 18.7925C81.3573 16.5898 83.1484 14.7987 85.3502 14.7987C87.552 14.7987 89.3431 16.5898 89.3431 18.7925C89.3431 20.9943 87.552 22.7854 85.3502 22.7854Z" fill="#FF0F0F"/>
<path d="M43.6624 9.35352C40.8658 9.35352 39.336 10.5965 38.7633 11.0819V9.82356H32.4531V27.9081H38.7633V18.6613C38.7633 17.8578 39.0263 17.1332 39.5031 16.6241C40.0165 16.0752 40.7546 15.785 41.6396 15.785C42.5237 15.785 43.2628 16.0752 43.7761 16.6241C44.2529 17.1341 44.516 17.8578 44.516 18.6613V27.9081H50.7896V17.0755C50.7896 14.6972 49.9674 12.7211 48.6879 11.3585C47.4704 10.0637 45.6377 9.35352 43.6624 9.35352Z" fill="#FF0F0F"/>
<path d="M76.8264 4.69485C75.4077 3.27619 73.0998 3.27619 71.6812 4.69485C70.2625 6.11436 70.2625 8.42225 71.6812 9.84006C73.0998 11.2579 75.4077 11.2587 76.8264 9.84006C78.245 8.4214 78.245 6.11436 76.8264 4.69485Z" fill="#FF0F0F"/>
</svg>
